<svg width="36" height="36" viewBox="0 0 36 36" fill="none" xmlns="http://www.w3.org/2000/svg">
<path fill-rule="evenodd" clip-rule="evenodd" d="M0 28.125C0 29.0201 0.355579 29.8786 0.988515 30.5115C1.62145 31.1444 2.47989 31.5 3.375 31.5H32.625C33.5201 31.5 34.3786 31.1444 35.0115 30.5115C35.6444 29.8786 36 29.0201 36 28.125V14.625H33.75V28.125C33.75 28.4234 33.6315 28.7095 33.4205 28.9205C33.2095 29.1315 32.9234 29.25 32.625 29.25H3.375C3.07663 29.25 2.79048 29.1315 2.5795 28.9205C2.36853 28.7095 2.25 28.4234 2.25 28.125V14.625H0V28.125Z" fill="#F5F5F5"/>
<path fill-rule="evenodd" clip-rule="evenodd" d="M0 10.125C0 9.22989 0.355579 8.37145 0.988515 7.73851C1.62145 7.10558 2.47989 6.75 3.375 6.75H32.625C33.5201 6.75 34.3786 7.10558 35.0115 7.73851C35.6444 8.37145 36 9.22989 36 10.125V15.489L18.8685 20.0565C18.2994 20.208 17.7006 20.208 17.1315 20.0565L0 15.489V10.125ZM3.375 9C3.07663 9 2.79048 9.11853 2.5795 9.3295C2.36853 9.54048 2.25 9.82663 2.25 10.125V13.761L17.7097 17.883C17.8999 17.9338 18.1001 17.9338 18.2902 17.883L33.75 13.761V10.125C33.75 9.82663 33.6315 9.54048 33.4205 9.3295C33.2095 9.11853 32.9234 9 32.625 9H3.375ZM11.25 5.625C11.25 4.72989 11.6056 3.87145 12.2385 3.23851C12.8714 2.60558 13.7299 2.25 14.625 2.25H21.375C22.2701 2.25 23.1286 2.60558 23.7615 3.23851C24.3944 3.87145 24.75 4.72989 24.75 5.625V6.75H22.5V5.625C22.5 5.32663 22.3815 5.04048 22.1705 4.8295C21.9595 4.61853 21.6734 4.5 21.375 4.5H14.625C14.3266 4.5 14.0405 4.61853 13.8295 4.8295C13.6185 5.04048 13.5 5.32663 13.5 5.625V6.75H11.25V5.625Z" fill="#F5F5F5"/>
</svg>
