<svg width="54" height="48" viewBox="0 0 54 48" fill="none" xmlns="http://www.w3.org/2000/svg">
<rect x="1.5" y="1.5" width="51" height="45" rx="3.5" stroke="#F5F5F5" stroke-width="3"/>
<path fill-rule="evenodd" clip-rule="evenodd" d="M10.5 36.375C10.5 36.0103 10.6449 35.6606 10.9027 35.4027C11.1606 35.1449 11.5103 35 11.875 35H42.125C42.4897 35 42.8394 35.1449 43.0973 35.4027C43.3551 35.6606 43.5 36.0103 43.5 36.375C43.5 36.7397 43.3551 37.0894 43.0973 37.3473C42.8394 37.6051 42.4897 37.75 42.125 37.75H11.875C11.5103 37.75 11.1606 37.6051 10.9027 37.3473C10.6449 37.0894 10.5 36.7397 10.5 36.375ZM10.5 28.125C10.5 27.7603 10.6449 27.4106 10.9027 27.1527C11.1606 26.8949 11.5103 26.75 11.875 26.75H42.125C42.4897 26.75 42.8394 26.8949 43.0973 27.1527C43.3551 27.4106 43.5 27.7603 43.5 28.125C43.5 28.4897 43.3551 28.8394 43.0973 29.0973C42.8394 29.3551 42.4897 29.5 42.125 29.5H11.875C11.5103 29.5 11.1606 29.3551 10.9027 29.0973C10.6449 28.8394 10.5 28.4897 10.5 28.125ZM10.5 19.875C10.5 19.5103 10.6449 19.1606 10.9027 18.9027C11.1606 18.6449 11.5103 18.5 11.875 18.5H42.125C42.4897 18.5 42.8394 18.6449 43.0973 18.9027C43.3551 19.1606 43.5 19.5103 43.5 19.875C43.5 20.2397 43.3551 20.5894 43.0973 20.8473C42.8394 21.1051 42.4897 21.25 42.125 21.25H11.875C11.5103 21.25 11.1606 21.1051 10.9027 20.8473C10.6449 20.5894 10.5 20.2397 10.5 19.875ZM10.5 11.625C10.5 11.2603 10.6449 10.9106 10.9027 10.6527C11.1606 10.3949 11.5103 10.25 11.875 10.25H42.125C42.4897 10.25 42.8394 10.3949 43.0973 10.6527C43.3551 10.9106 43.5 11.2603 43.5 11.625C43.5 11.9897 43.3551 12.3394 43.0973 12.5973C42.8394 12.8551 42.4897 13 42.125 13H11.875C11.5103 13 11.1606 12.8551 10.9027 12.5973C10.6449 12.3394 10.5 11.9897 10.5 11.625Z" fill="#F5F5F5"/>
</svg>
