<svg width="229" height="50" viewBox="0 0 229 50" fill="none" xmlns="http://www.w3.org/2000/svg">
<path d="M11.2195 0.469996H44.0575L42.8095 6.398H26.8975L23.6215 21.452H36.9595L35.7115 27.302H22.3735L18.7855 43.994H34.6975L33.5275 50H0.689453L11.2195 0.469996ZM50.448 0.469996H67.374L58.17 43.448H74.004L72.678 50H39.918L50.448 0.469996ZM94.3949 50H77.5469L88.0769 0.469996H105.003L94.3949 50ZM150.802 11.78C150.802 13.288 150.568 14.64 150.1 15.836C149.684 17.032 149.086 18.098 148.306 19.034C147.526 19.97 146.616 20.802 145.576 21.53C144.536 22.258 143.392 22.934 142.144 23.558C142.716 23.766 143.392 24.104 144.172 24.572C144.952 24.988 145.706 25.586 146.434 26.366C147.162 27.146 147.76 28.16 148.228 29.408C148.748 30.604 149.008 32.086 149.008 33.854C149.008 36.194 148.514 38.352 147.526 40.328C146.538 42.304 145.056 44.02 143.08 45.476C141.156 46.88 138.764 47.998 135.904 48.83C133.096 49.61 129.846 50 126.154 50H102.988L113.518 0.469996H134.032C136.06 0.469996 138.062 0.625997 140.038 0.937999C142.066 1.198 143.86 1.744 145.42 2.576C147.032 3.408 148.332 4.578 149.32 6.086C150.308 7.542 150.802 9.44 150.802 11.78ZM129.586 21.218C130.73 21.218 131.692 20.88 132.472 20.204C133.304 19.528 133.98 18.696 134.5 17.708C135.02 16.668 135.41 15.576 135.67 14.432C135.93 13.236 136.06 12.17 136.06 11.234C136.06 9.726 135.696 8.452 134.968 7.412C134.292 6.32 133.2 5.774 131.692 5.774H129.352L125.998 21.218H129.586ZM123.97 45.086C125.53 45.086 126.83 44.644 127.87 43.76C128.91 42.876 129.768 41.784 130.444 40.484C131.12 39.184 131.588 37.832 131.848 36.428C132.16 34.972 132.316 33.698 132.316 32.606C132.316 30.786 131.926 29.356 131.146 28.316C130.418 27.224 129.222 26.678 127.558 26.678H124.672L120.85 45.086H123.97ZM200.104 12.248C200.104 15.316 199.246 18.15 197.53 20.75C195.814 23.35 192.98 25.326 189.028 26.678L198.076 50H180.682L173.818 28.394H172.96L168.358 50H151.51L162.04 0.469996H182.554C184.946 0.469996 187.208 0.625997 189.34 0.937999C191.472 1.198 193.318 1.77 194.878 2.654C196.49 3.486 197.764 4.682 198.7 6.242C199.636 7.75 200.104 9.752 200.104 12.248ZM177.64 23.402C178.992 23.402 180.136 22.96 181.072 22.076C182.06 21.14 182.84 20.022 183.412 18.722C184.036 17.422 184.478 16.044 184.738 14.588C184.998 13.08 185.128 11.78 185.128 10.688C185.128 9.336 184.894 8.192 184.426 7.256C183.958 6.268 182.944 5.774 181.384 5.774H177.874L173.974 23.402H177.64ZM217.717 50H200.869L211.399 0.469996H228.325L217.717 50Z" fill="white"/>
</svg>
