<svg width="40" height="38" viewBox="0 0 40 38" fill="none" xmlns="http://www.w3.org/2000/svg">
<path fill-rule="evenodd" clip-rule="evenodd" d="M7.5 33.25C7.5 33.25 5 33.25 5 30.875C5 28.5 7.5 21.375 20 21.375C32.5 21.375 35 28.5 35 30.875C35 33.25 32.5 33.25 32.5 33.25H7.5ZM20 19C21.9891 19 23.8968 18.2493 25.3033 16.9131C26.7098 15.5769 27.5 13.7647 27.5 11.875C27.5 9.98533 26.7098 8.17306 25.3033 6.83686C23.8968 5.50067 21.9891 4.75 20 4.75C18.0109 4.75 16.1032 5.50067 14.6967 6.83686C13.2902 8.17306 12.5 9.98533 12.5 11.875C12.5 13.7647 13.2902 15.5769 14.6967 16.9131C16.1032 18.2493 18.0109 19 20 19Z" fill="#F5F5F5"/>
</svg>
