<svg width="35" height="35" viewBox="0 0 35 35" fill="none" xmlns="http://www.w3.org/2000/svg">
<path d="M14.2188 3.28125C20.2472 3.28125 25.1562 8.19031 25.1562 14.2188C25.1562 16.8378 24.2377 19.2389 22.6953 21.123L31.4111 29.8389L29.8389 31.4111L21.123 22.6953C19.2389 24.2377 16.8378 25.1562 14.2188 25.1562C8.19031 25.1562 3.28125 20.2472 3.28125 14.2188C3.28125 8.19031 8.19031 3.28125 14.2188 3.28125ZM14.2188 5.46875C9.37378 5.46875 5.46875 9.37378 5.46875 14.2188C5.46875 19.0637 9.37378 22.9688 14.2188 22.9688C19.0637 22.9688 22.9688 19.0637 22.9688 14.2188C22.9688 9.37378 19.0637 5.46875 14.2188 5.46875Z" fill="#A0A0A0"/>
</svg>
