<svg width="43" height="44" viewBox="0 0 43 44" fill="none" xmlns="http://www.w3.org/2000/svg">
<path d="M6.71875 9.625C5.97864 9.625 5.375 10.2427 5.375 11C5.375 11.7573 5.97864 12.375 6.71875 12.375H9.7002L13.2275 26.8125C13.5267 28.0371 14.5975 28.875 15.8311 28.875H31.2422C32.4547 28.875 33.4835 28.0532 33.8037 26.8555L37.2891 13.75H14.7812L15.4531 16.5H33.8037L31.2422 26.125H15.8311L12.3037 11.6875C12.0045 10.4629 10.9337 9.625 9.7002 9.625H6.71875ZM29.5625 28.875C27.3527 28.875 25.5312 30.7388 25.5312 33C25.5312 35.2612 27.3527 37.125 29.5625 37.125C31.7723 37.125 33.5938 35.2612 33.5938 33C33.5938 30.7388 31.7723 28.875 29.5625 28.875ZM17.4688 28.875C15.2589 28.875 13.4375 30.7388 13.4375 33C13.4375 35.2612 15.2589 37.125 17.4688 37.125C19.6786 37.125 21.5 35.2612 21.5 33C21.5 30.7388 19.6786 28.875 17.4688 28.875ZM17.4688 31.625C18.2246 31.625 18.8125 32.2266 18.8125 33C18.8125 33.7734 18.2246 34.375 17.4688 34.375C16.7129 34.375 16.125 33.7734 16.125 33C16.125 32.2266 16.7129 31.625 17.4688 31.625ZM29.5625 31.625C30.3184 31.625 30.9062 32.2266 30.9062 33C30.9062 33.7734 30.3184 34.375 29.5625 34.375C28.8066 34.375 28.2188 33.7734 28.2188 33C28.2188 32.2266 28.8066 31.625 29.5625 31.625Z" fill="#F5F5F5"/>
</svg>
