<svg width="40" height="33" viewBox="0 0 40 33" fill="none" xmlns="http://www.w3.org/2000/svg">
<g clip-path="url(#clip0_197_5)">
<path fill-rule="evenodd" clip-rule="evenodd" d="M35 2.0625H5C4.33696 2.0625 3.70107 2.2798 3.23223 2.66659C2.76339 3.05339 2.5 3.57799 2.5 4.125V28.875C2.5 29.422 2.76339 29.9466 3.23223 30.3334C3.70107 30.7202 4.33696 30.9375 5 30.9375H35C35.663 30.9375 36.2989 30.7202 36.7678 30.3334C37.2366 29.9466 37.5 29.422 37.5 28.875V4.125C37.5 3.57799 37.2366 3.05339 36.7678 2.66659C36.2989 2.2798 35.663 2.0625 35 2.0625ZM5 0C3.67392 0 2.40215 0.434597 1.46447 1.20818C0.526784 1.98177 0 3.03098 0 4.125L0 28.875C0 29.969 0.526784 31.0182 1.46447 31.7918C2.40215 32.5654 3.67392 33 5 33H35C36.3261 33 37.5979 32.5654 38.5355 31.7918C39.4732 31.0182 40 29.969 40 28.875V4.125C40 3.03098 39.4732 1.98177 38.5355 1.20818C37.5979 0.434597 36.3261 0 35 0L5 0Z" fill="#F5F5F5"/>
<path d="M9.1405 22V10.8H13.9885C14.9912 10.8 15.8552 10.9653 16.5805 11.296C17.3058 11.616 17.8658 12.08 18.2605 12.688C18.6552 13.296 18.8525 14.0213 18.8525 14.864C18.8525 15.696 18.6552 16.416 18.2605 17.024C17.8658 17.6213 17.3058 18.08 16.5805 18.4C15.8552 18.72 14.9912 18.88 13.9885 18.88H10.5805L11.7325 17.744V22H9.1405ZM16.2605 22L13.4605 17.936H16.2285L19.0605 22H16.2605ZM11.7325 18.032L10.5805 16.816H13.8445C14.6445 16.816 15.2418 16.6453 15.6365 16.304C16.0312 15.952 16.2285 15.472 16.2285 14.864C16.2285 14.2453 16.0312 13.7653 15.6365 13.424C15.2418 13.0827 14.6445 12.912 13.8445 12.912H10.5805L11.7325 11.68V18.032ZM25.8821 22.192C24.2928 22.192 23.0501 21.7493 22.1541 20.864C21.2581 19.9787 20.8101 18.7147 20.8101 17.072V10.8H23.4021V16.976C23.4021 18.0427 23.6208 18.8107 24.0581 19.28C24.4955 19.7493 25.1088 19.984 25.8981 19.984C26.6875 19.984 27.3008 19.7493 27.7381 19.28C28.1755 18.8107 28.3941 18.0427 28.3941 16.976V10.8H30.9541V17.072C30.9541 18.7147 30.5061 19.9787 29.6101 20.864C28.7141 21.7493 27.4715 22.192 25.8821 22.192Z" fill="white"/>
</g>
<defs>
<clipPath id="clip0_197_5">
<rect width="40" height="33" fill="white"/>
</clipPath>
</defs>
</svg>
