<svg width="49" height="49" viewBox="0 0 49 49" fill="none" xmlns="http://www.w3.org/2000/svg">
<g clip-path="url(#clip0_218_598)">
<path fill-rule="evenodd" clip-rule="evenodd" d="M7.65625 3.0625C6.84402 3.0625 6.06507 3.38516 5.49074 3.95949C4.91641 4.53382 4.59375 5.31277 4.59375 6.125V9.1875C4.59375 9.99973 4.91641 10.7787 5.49074 11.353C6.06507 11.9273 6.84402 12.25 7.65625 12.25H9.1875V39.8125C9.1875 41.437 9.83281 42.9949 10.9815 44.1435C12.1301 45.2922 13.688 45.9375 15.3125 45.9375H33.6875C35.312 45.9375 36.8699 45.2922 38.0185 44.1435C39.1672 42.9949 39.8125 41.437 39.8125 39.8125V12.25H41.3438C42.156 12.25 42.9349 11.9273 43.5093 11.353C44.0836 10.7787 44.4062 9.99973 44.4062 9.1875V6.125C44.4062 5.31277 44.0836 4.53382 43.5093 3.95949C42.9349 3.38516 42.156 3.0625 41.3438 3.0625H30.625C30.625 2.25027 30.3023 1.47132 29.728 0.896986C29.1537 0.322655 28.3747 0 27.5625 0L21.4375 0C20.6253 0 19.8463 0.322655 19.272 0.896986C18.6977 1.47132 18.375 2.25027 18.375 3.0625H7.65625ZM16.8438 15.3125C17.2499 15.3125 17.6393 15.4738 17.9265 15.761C18.2137 16.0482 18.375 16.4376 18.375 16.8438V38.2812C18.375 38.6874 18.2137 39.0768 17.9265 39.364C17.6393 39.6512 17.2499 39.8125 16.8438 39.8125C16.4376 39.8125 16.0482 39.6512 15.761 39.364C15.4738 39.0768 15.3125 38.6874 15.3125 38.2812V16.8438C15.3125 16.4376 15.4738 16.0482 15.761 15.761C16.0482 15.4738 16.4376 15.3125 16.8438 15.3125ZM24.5 15.3125C24.9061 15.3125 25.2956 15.4738 25.5828 15.761C25.8699 16.0482 26.0312 16.4376 26.0312 16.8438V38.2812C26.0312 38.6874 25.8699 39.0768 25.5828 39.364C25.2956 39.6512 24.9061 39.8125 24.5 39.8125C24.0939 39.8125 23.7044 39.6512 23.4172 39.364C23.1301 39.0768 22.9688 38.6874 22.9688 38.2812V16.8438C22.9688 16.4376 23.1301 16.0482 23.4172 15.761C23.7044 15.4738 24.0939 15.3125 24.5 15.3125ZM33.6875 16.8438C33.6875 16.4376 33.5262 16.0482 33.239 15.761C32.9518 15.4738 32.5624 15.3125 32.1562 15.3125C31.7501 15.3125 31.3607 15.4738 31.0735 15.761C30.7863 16.0482 30.625 16.4376 30.625 16.8438V38.2812C30.625 38.6874 30.7863 39.0768 31.0735 39.364C31.3607 39.6512 31.7501 39.8125 32.1562 39.8125C32.5624 39.8125 32.9518 39.6512 33.239 39.364C33.5262 39.0768 33.6875 38.6874 33.6875 38.2812V16.8438Z" fill="#CDCDCD"/>
</g>
<defs>
<clipPath id="clip0_218_598">
<rect width="49" height="49" fill="white"/>
</clipPath>
</defs>
</svg>
